solid panel2
   facet normal -1.000000e+00 0.000000e+00 0.000000e+00
      outer loop
         vertex 4.000000e+00 4.000000e+00 3.700000e+00
         vertex 4.000000e+00 4.000000e+00 4.000000e+00
         vertex 4.000000e+00 6.000000e+00 3.700000e+00
      endloop
   endfacet
   facet normal -1.000000e+00 0.000000e+00 0.000000e+00
      outer loop
         vertex 4.000000e+00 6.000000e+00 3.700000e+00
         vertex 4.000000e+00 4.000000e+00 4.000000e+00
         vertex 4.000000e+00 6.000000e+00 4.000000e+00
      endloop
   endfacet
   facet normal -0.000000e+00 -1.000000e+00 -0.000000e+00
      outer loop
         vertex 6.000000e+00 4.000000e+00 4.000000e+00
         vertex 4.000000e+00 4.000000e+00 4.000000e+00
         vertex 6.000000e+00 4.000000e+00 3.700000e+00
      endloop
   endfacet
   facet normal 0.000000e+00 -1.000000e+00 0.000000e+00
      outer loop
         vertex 6.000000e+00 4.000000e+00 3.700000e+00
         vertex 4.000000e+00 4.000000e+00 4.000000e+00
         vertex 4.000000e+00 4.000000e+00 3.700000e+00
      endloop
   endfacet
   facet normal 1.000000e+00 0.000000e+00 0.000000e+00
      outer loop
         vertex 6.000000e+00 6.000000e+00 4.000000e+00
         vertex 6.000000e+00 4.000000e+00 4.000000e+00
         vertex 6.000000e+00 6.000000e+00 3.700000e+00
      endloop
   endfacet
   facet normal 1.000000e+00 0.000000e+00 0.000000e+00
      outer loop
         vertex 6.000000e+00 6.000000e+00 3.700000e+00
         vertex 6.000000e+00 4.000000e+00 4.000000e+00
         vertex 6.000000e+00 4.000000e+00 3.700000e+00
      endloop
   endfacet
   facet normal 0.000000e+00 1.000000e+00 0.000000e+00
      outer loop
         vertex 4.000000e+00 6.000000e+00 3.700000e+00
         vertex 4.000000e+00 6.000000e+00 4.000000e+00
         vertex 6.000000e+00 6.000000e+00 3.700000e+00
      endloop
   endfacet
   facet normal 0.000000e+00 1.000000e+00 -0.000000e+00
      outer loop
         vertex 6.000000e+00 6.000000e+00 3.700000e+00
         vertex 4.000000e+00 6.000000e+00 4.000000e+00
         vertex 6.000000e+00 6.000000e+00 4.000000e+00
      endloop
   endfacet
   facet normal 0.000000e+00 -0.000000e+00 1.000000e+00
      outer loop
         vertex 6.000000e+00 4.000000e+00 4.000000e+00
         vertex 6.000000e+00 6.000000e+00 4.000000e+00
         vertex 4.000000e+00 4.000000e+00 4.000000e+00
      endloop
   endfacet
   facet normal 0.000000e+00 0.000000e+00 1.000000e+00
      outer loop
         vertex 4.000000e+00 4.000000e+00 4.000000e+00
         vertex 6.000000e+00 6.000000e+00 4.000000e+00
         vertex 4.000000e+00 6.000000e+00 4.000000e+00
      endloop
   endfacet
   facet normal -0.000000e+00 -0.000000e+00 -1.000000e+00
      outer loop
         vertex 6.000000e+00 6.000000e+00 3.700000e+00
         vertex 6.000000e+00 4.000000e+00 3.700000e+00
         vertex 4.000000e+00 6.000000e+00 3.700000e+00
      endloop
   endfacet
   facet normal 0.000000e+00 0.000000e+00 -1.000000e+00
      outer loop
         vertex 4.000000e+00 6.000000e+00 3.700000e+00
         vertex 6.000000e+00 4.000000e+00 3.700000e+00
         vertex 4.000000e+00 4.000000e+00 3.700000e+00
      endloop
   endfacet
endsolid panel2